<svg width="111" height="119" viewBox="0 0 111 119" fill="none" xmlns="http://www.w3.org/2000/svg">
<path d="M107.68 118.6C84.06 118.6 66.9 114.96 56.18 107.68C45.46 114.96 28.3 118.6 4.67999 118.6L1.56 98.31C12.27 98.31 20.7 97.63 26.84 96.28C32.98 94.93 37.24 92.02 39.64 87.54H23.25V75.06H0V56.33H75.68V75.06H52.59V80.37H70.85C71.26 85.68 73.19 89.63 76.62 92.23C80.05 94.83 84.47 96.5 89.88 97.22C95.29 97.95 102.26 98.31 110.79 98.31L107.67 118.6H107.68ZM27.63 49.78C20.35 49.78 14.44 47.57 9.91998 43.15C5.39998 38.73 3.13 32.93 3.13 25.75C3.13 18.57 5.38998 12.77 9.91998 8.35C14.44 3.93 20.35 1.72 27.63 1.72H47.29C54.57 1.72 60.48 3.93 65 8.35C69.52 12.77 71.79 18.57 71.79 25.75C71.79 32.93 69.53 38.73 65 43.15C60.48 47.57 54.57 49.78 47.29 49.78H27.63ZM33.87 22.78C33.04 22.78 32.33 23.07 31.76 23.64C31.19 24.21 30.9 24.92 30.9 25.75C30.9 26.58 31.19 27.29 31.76 27.86C32.33 28.43 33.03 28.72 33.87 28.72H41.05C41.88 28.72 42.58 28.43 43.16 27.86C43.73 27.29 44.02 26.59 44.02 25.75C44.02 24.91 43.73 24.22 43.16 23.64C42.59 23.07 41.88 22.78 41.05 22.78H33.87ZM109.71 0V80.36H80.37V0H109.71Z" fill="black"/>
</svg>
